<?xml version="1.0" encoding="utf-8"?>
<!-- Generator: Adobe Illustrator 25.2.1, SVG Export Plug-In . SVG Version: 6.00 Build 0)  -->
<svg version="1.1" id="圖層_1" xmlns="http://www.w3.org/2000/svg" xmlns:xlink="http://www.w3.org/1999/xlink" x="0px" y="0px"
	 viewBox="0 0 595.28 841.89" style="enable-background:new 0 0 595.28 841.89;" xml:space="preserve">
<g>
	<g>
		<path d="M263.39,136.85c-13.87-5.79-28.4-9.92-43.26-12.23c-14.43-2.24-29.53-3.4-43.93-0.32c-12.51,2.67-24.14,9.16-31.71,19.65
			c-7.24,10.04-8.73,22.78-4.62,34.39c4.3,12.13,13.01,22.19,21.72,31.4c9.24,9.76,18.69,19.24,24.46,31.6
			c5.1,10.94,5.89,23.79-2.06,33.61c-6.92,8.55-17.51,13.15-26.95,18.28c-4.97,2.7-9.84,5.58-14.24,9.15
			c-4.77,3.88-8.84,8.64-12.07,13.87c-6.35,10.3-9.55,22.77-8.46,34.85c2.14,23.85,21.36,46.15,45.52,49.58
			c6.68,0.95,13.49,0.07,19.21-3.68c4.45-2.92,7.93-6.97,11.21-11.1c3.29-4.14,6.46-8.47,10.48-11.96
			c4.28-3.71,9.61-5.75,15.29-5.61c6.27,0.15,12.3,2.64,17.74,5.6c6.03,3.27,11.63,7.28,17.17,11.3
			c11.87,8.62,24.4,16.18,37.75,22.3c12.89,5.91,28,12.78,42.47,9.22c10.89-2.68,18.9-11.18,24.21-20.68
			c5.87-10.51,9.22-22.41,11.81-34.1c2.92-13.18,4.49-26.98,1.94-40.35c-1.2-6.27-3.44-12.32-6.67-17.83c-0.5,1.22-1,2.45-1.49,3.67
			c15.35-5.32,30.69-10.65,46.04-15.97c7.57-2.63,15.16-5.23,22.72-7.89c6.25-2.19,12.68-4.71,17.39-9.56
			c4.83-4.97,7.34-11.74,9.86-18.05c2.84-7.08,5.32-14.33,6.98-21.79c3.01-13.51,3.34-28.04-2.39-40.89
			c-4.75-10.67-13.47-19.9-24.46-24.16c-5.68-2.2-11.68-2.61-17.66-1.65c-3.65,0.58-7.25,1.59-10.97,1.56
			c-2.97-0.02-5.83-0.87-8.44-2.28c-5.45-2.94-9.73-7.57-14.22-11.74c-4.81-4.46-10.09-8.35-15.82-11.54
			c-11.67-6.49-24.64-10.29-37.6-13.2c-6.58-1.48-13.23-2.91-19.9-3.98c-3.83-0.62-7.67-0.95-11.51-0.24
			c-3.52,0.65-6.69,2.41-9.7,4.29c-5.57,3.47-11.13,6.15-17.7,7.09c-6.3,0.9-12.8,0.27-18.82-1.75c-2.99-1-5.8-2.39-8.45-4.08
			c-2.72-1.73-5.23,2.59-2.52,4.32c10.69,6.8,24.27,8.64,36.44,5.19c3.08-0.87,6.08-2.09,8.89-3.62c2.96-1.61,5.68-3.65,8.71-5.14
			c6.46-3.18,13.77-1.2,20.45,0.1c12.84,2.51,25.74,5.25,37.95,10.06c5.91,2.33,11.62,5.21,16.9,8.74
			c5.21,3.48,9.6,7.81,14.17,12.04c4.38,4.05,9.15,8,14.94,9.79c7.03,2.17,13.62-0.45,20.63-1.05c11.24-0.97,21.4,5.18,28.28,13.69
			c8.1,10.01,10.68,22.75,9.76,35.38c-0.52,7.12-2.14,14.14-4.25,20.95c-2.15,6.9-4.71,13.8-7.82,20.33c-1.39,2.91-3,5.78-5.27,8.11
			c-2.19,2.26-4.86,3.91-7.67,5.28c-6.51,3.16-13.68,5.14-20.51,7.5c-14.92,5.17-29.83,10.35-44.75,15.52
			c-3.67,1.27-7.35,2.55-11.02,3.82c-1.5,0.52-2.36,2.21-1.49,3.67c6.61,11.25,8.02,24.37,6.95,37.17
			c-1.03,12.38-4.03,24.88-8.11,36.6c-3.44,9.89-8.39,20.35-16.9,26.89c-4.37,3.35-9.64,5.39-15.14,5.69
			c-7.21,0.4-14.28-1.65-20.97-4.14c-13.29-4.94-26.06-11.46-38.02-19.06c-11.35-7.21-21.63-16.4-33.95-22
			c-5.62-2.55-11.75-4.44-17.99-4.09c-5.85,0.32-11.2,2.55-15.75,6.19c-7.99,6.38-12.38,16.31-20.63,22.38
			c-10.21,7.52-24.04,3.55-33.96-2.55c-9.55-5.87-17.26-15-21.27-25.49c-8.44-22.07,0.51-47.84,19.98-60.87
			c8.99-6.02,19.2-10.01,28.04-16.27c9.34-6.61,16.2-15.92,16.69-27.7c0.53-12.75-6.12-24.89-13.62-34.73
			c-7.81-10.25-17.6-18.72-25.67-28.75c-7.28-9.05-13.74-19.96-13.19-31.97c0.54-11.62,8.07-21.6,17.65-27.67
			c11.58-7.33,25.7-8.88,39.12-8.39c14.49,0.52,28.94,3.04,42.86,7.09c6.75,1.96,13.38,4.32,19.87,7.03
			c1.26,0.52,2.74-0.57,3.08-1.75C265.55,138.49,264.63,137.37,263.39,136.85L263.39,136.85z"/>
	</g>
</g>
<g>
</g>
<g>
</g>
<g>
</g>
<g>
</g>
<g>
</g>
<g>
</g>
</svg>
